<svg width="1024" height="1024" viewBox="0 0 1024 1024" xmlns="http://www.w3.org/2000/svg">
  <defs>
    <linearGradient id="bgGrad" x1="0%" y1="0%" x2="100%" y2="100%">
      <stop offset="0%" stop-color="#6366F1"/>
      <stop offset="50%" stop-color="#8B5CF6"/>
      <stop offset="100%" stop-color="#4F46E5"/>
    </linearGradient>
    <linearGradient id="goldGrad" x1="0%" y1="0%" x2="0%" y2="100%">
      <stop offset="0%" stop-color="#FCD34D"/>
      <stop offset="100%" stop-color="#F59E0B"/>
    </linearGradient>
  </defs>
  <rect x="0" y="0" width="1024" height="1024" rx="220" fill="url(#bgGrad)"/>
  <g transform="translate(256, 120)">
    <circle cx="256" cy="128" r="95" fill="#FFFFFF"/>
    <path d="M256 223 L256 450" stroke="#FFFFFF" stroke-width="55" stroke-linecap="round"/>
    <path d="M256 290 L120 400" stroke="#FFFFFF" stroke-width="45" stroke-linecap="round"/>
    <path d="M256 290 L420 260" stroke="#FFFFFF" stroke-width="45" stroke-linecap="round"/>
    <path d="M256 450 L110 680" stroke="#FFFFFF" stroke-width="50" stroke-linecap="round"/>
    <path d="M256 450 L420 620" stroke="#FFFFFF" stroke-width="50" stroke-linecap="round"/>
  </g>
  <g transform="translate(680, 200)">
    <path d="M100 260 L180 100 L260 260 L210 260 L210 420 L150 420 L150 260 Z" fill="url(#goldGrad)"/>
  </g>
  <g stroke="rgba(255,255,255,0.7)" stroke-width="18" stroke-linecap="round">
    <path d="M160 420 L70 420"/>
    <path d="M180 530 L50 530"/>
    <path d="M160 640 L70 640"/>
  </g>
  <g fill="url(#goldGrad)">
    <circle cx="200" cy="260" r="28"/>
    <circle cx="870" cy="450" r="22"/>
    <circle cx="820" cy="750" r="32"/>
  </g>
</svg>